<svg viewBox="0 0 195 227" fill="#efefef" xmlns="http://www.w3.org/2000/svg">
<path d="M147.478 204.508C146.308 204.508 145.116 204.177 144.119 203.487C111.459 180.919 75.7971 154.36 66.0475 124.765C61.9203 112.233 70.2398 99.1139 84.5933 95.5009C98.9467 91.9161 113.983 99.1707 118.11 111.694C123.873 129.182 163.001 156.223 177.734 166.401C180.084 168.018 180.474 170.997 178.622 173.04C176.77 175.093 173.379 175.443 171.017 173.816C143.036 154.483 113.625 132.284 107.7 114.304C105.219 106.785 96.1844 102.443 87.5831 104.59C78.9819 106.756 73.988 114.635 76.4578 122.145C85.3191 149.044 119.497 174.402 150.836 196.062C153.187 197.679 153.577 200.659 151.724 202.702C150.662 203.893 149.081 204.508 147.478 204.508Z" />
<path d="M9.78203 180.569C7.47464 180.569 5.32975 179.273 4.61478 177.249C3.71566 174.752 5.30808 172.104 8.16794 171.328C14.2235 169.673 33.2892 162.192 24.4063 135.226C19.2174 119.44 21.3623 102.831 30.4727 88.4733C39.583 74.0966 54.554 63.683 72.6447 59.143C109.086 50.0819 147.662 68.1473 159.145 99.5111C161.842 101.724 180.334 115.061 192.986 124.027C195.304 125.673 195.662 128.652 193.777 130.676C191.903 132.71 188.48 133.022 186.162 131.367C151.334 106.69 150.175 104.978 149.612 104.165C149.384 103.834 149.211 103.484 149.081 103.124C139.689 76.1396 106.725 60.4955 75.6237 68.2419C60.3278 72.0725 47.6535 80.8877 39.9405 93.0416C32.2384 105.196 30.4185 119.251 34.8058 132.606C44.0353 160.612 27.9595 175.83 11.3853 180.352C10.8653 180.493 10.3237 180.569 9.78203 180.569Z" />
<path d="M27.082 198.625C24.7746 198.625 22.6406 197.329 21.9148 195.305C21.0156 192.818 22.6081 190.16 25.4679 189.384C47.9135 183.255 56.0814 173.192 45.1403 129.702C39.2147 106.113 53.6007 83.6022 78.6028 77.3218C104.417 70.8713 131.499 83.9332 138.92 106.463C140.426 111.031 147.304 119.837 187.505 147.626C189.856 149.243 190.246 152.222 188.393 154.275C186.541 156.318 183.15 156.687 180.789 155.05C136.407 124.386 130.622 115.524 128.509 109.092C122.736 91.5756 101.72 81.3984 81.5818 86.4302C62.1478 91.3107 51.0225 109.045 55.7131 127.687C66.86 172.028 60.0462 189.876 28.6853 198.426C28.1653 198.559 27.6128 198.625 27.082 198.625Z" />
<path d="M162.492 189.167C161.105 189.167 159.719 188.703 158.657 187.786C156.675 186.055 152.32 183.17 147.283 179.831C127.881 166.977 95.4044 145.469 86.8682 119.534C86.0449 117.018 87.7023 114.408 90.573 113.68C93.487 112.961 96.4444 114.408 97.2785 116.914C104.818 139.823 135.497 160.139 153.826 172.284C159.405 175.982 163.814 178.904 166.316 181.089C168.428 182.934 168.428 185.932 166.316 187.776C165.265 188.703 163.879 189.167 162.492 189.167Z" />
<path d="M81.246 227C81.1268 227 81.0185 227 80.8993 226.991C77.9203 226.83 75.6454 224.588 75.8296 221.978C76.2304 216.501 79.1227 189.167 97.4952 189.167C111.004 189.167 119.139 198.814 124.523 205.199C125.964 206.901 127.22 208.433 128.401 209.474C130.514 211.318 130.514 214.316 128.401 216.161C126.289 218.005 122.855 218.005 120.742 216.161C119.247 214.856 117.612 212.964 115.792 210.817C111.22 205.378 105.533 198.625 97.4952 198.625C91.6238 198.625 87.3448 212.784 86.6515 222.564C86.4674 225.071 84.0842 227 81.246 227Z" />
<path d="M48.7476 217.542C46.4619 217.542 44.3386 216.274 43.5912 214.269C42.6704 211.782 44.2303 209.124 47.0685 208.31C60.7611 204.423 69.8715 179.604 65.2459 166.959C64.336 164.471 65.9067 161.813 68.7557 161.019C71.6048 160.186 74.6488 161.596 75.5587 164.083C81.311 179.793 71.2581 211.403 50.405 217.315C49.8633 217.466 49.3 217.542 48.7476 217.542Z" />
<path d="M5.4164 122.958C2.42655 122.958 0 120.84 0 118.229C0 73.898 41.3054 37.8333 92.0788 37.8333C142.061 37.8333 159.946 63.0398 173 81.4457C179.164 90.119 184.482 97.6195 191.253 99.5395C194.102 100.343 195.662 103.011 194.73 105.498C193.82 107.976 190.776 109.357 187.906 108.534C177.355 105.546 171.071 96.6831 163.792 86.4208C151.421 68.9891 136.027 47.2917 92.0788 47.2917C47.2743 47.2917 10.8328 79.1095 10.8328 118.229C10.8328 120.84 8.40625 122.958 5.4164 122.958Z" />
<path d="M10.8328 156.062C8.83956 156.062 6.93299 155.107 5.9797 153.452C4.98309 151.702 0 142.707 0 137.146C0 134.535 2.42655 132.417 5.4164 132.417C8.40625 132.417 10.8328 134.535 10.8328 137.146C10.8328 139.614 13.7252 145.81 15.6751 149.215C17.0183 151.551 15.9242 154.388 13.2485 155.561C12.4794 155.902 11.6561 156.062 10.8328 156.062Z" />
<path d="M167.908 56.75C166.078 56.75 164.29 55.946 163.272 54.4705C157.931 46.7904 128.304 28.375 86.6624 28.375C43.3528 28.375 20.1707 47.6984 15.4584 54.4705C13.9201 56.7122 10.5836 57.4121 8.0271 56.0595C5.47056 54.707 4.64727 51.8033 6.20719 49.5711C12.1327 41.0397 38.1423 18.9167 86.6624 18.9167C132.29 18.9167 165.103 38.8738 172.534 49.5711C174.094 51.8033 173.271 54.707 170.714 56.069C169.837 56.5325 168.872 56.75 167.908 56.75Z" />
<path d="M146.243 18.9167C145.658 18.9167 145.062 18.8315 144.477 18.6613C142.289 18.0087 140.209 17.3277 138.14 16.6656C126.733 12.9579 115.954 9.45833 86.6624 9.45833C60.6528 9.45833 54.7923 12.0783 46.711 15.7008C44.7178 16.5899 42.6054 17.5357 40.1247 18.5005C37.4057 19.5787 34.1883 18.5005 32.9642 16.1265C31.7401 13.743 32.9642 10.9433 35.6832 9.8745C37.969 8.97596 39.908 8.10579 41.7496 7.28292C50.8492 3.21583 58.0313 0 86.6624 0C117.904 0 130.113 3.96304 141.92 7.79367C143.914 8.43683 145.907 9.08946 148.008 9.72317C150.836 10.5744 152.342 13.2606 151.367 15.7292C150.587 17.6871 148.485 18.9167 146.243 18.9167Z" />
</svg>
