<svg xmlns="http://www.w3.org/2000/svg" viewBox="0 0 468.293 468.293"><path d="M353.751 468.293H114.542c-6.897 0-12.488-5.591-12.488-12.488V12.488C102.054 5.591 107.645 0 114.542 0h239.209c6.897 0 12.488 5.591 12.488 12.488v443.317c0 6.897-5.591 12.488-12.488 12.488z" fill="#64798a"/><path fill="#ebf0f3" d="M102.057 51.937h264.18V400.39h-264.18z"/><g fill="#44c4a1"><path d="M282.066 303.465H186.02c-6.897 0-12.488-5.591-12.488-12.488V182.443h121.022v108.534c0 6.897-5.591 12.488-12.488 12.488zm-127.667-39.086h-.523a9.54 9.54 0 01-9.539-9.539v-62.858a9.54 9.54 0 019.539-9.539h.523a9.54 9.54 0 019.539 9.539v62.858a9.54 9.54 0 01-9.539 9.539zm160.018 0h-.523a9.54 9.54 0 01-9.539-9.539v-62.858a9.54 9.54 0 019.539-9.539h.523a9.54 9.54 0 019.539 9.539v62.858a9.54 9.54 0 01-9.539 9.539z"/><path d="M261.402 354.233h-.653c-6.585 0-11.924-5.339-11.924-11.924v-58.088c0-6.586 5.339-11.924 11.924-11.924h.653c6.586 0 11.924 5.339 11.924 11.924v58.088c0 6.586-5.339 11.924-11.924 11.924zm-54.064 0h-.653c-6.586 0-11.924-5.339-11.924-11.924v-58.088c0-6.586 5.339-11.924 11.924-11.924h.653c6.585 0 11.924 5.339 11.924 11.924v58.088c0 6.586-5.339 11.924-11.924 11.924zM188.742 99.527a4.898 4.898 0 00-6.929 0 4.898 4.898 0 000 6.929l18.29 18.29c.957.957 2.211 1.436 3.465 1.436s2.508-.479 3.465-1.436a4.898 4.898 0 000-6.929l-18.291-18.29zm97.533 0a4.898 4.898 0 00-6.929 0l-18.29 18.29a4.898 4.898 0 003.465 8.365 4.885 4.885 0 003.465-1.436l18.29-18.29a4.9 4.9 0 00-.001-6.929z"/><path d="M234.043 107.231c-33.419 0-60.511 27.092-60.511 60.511h121.022c0-33.419-27.092-60.511-60.511-60.511z"/></g><g fill="#31978c"><circle cx="208.846" cy="140.738" r="8.573"/><circle cx="259.247" cy="140.738" r="8.573"/></g><g fill="#3a556a"><circle cx="234.146" cy="434.576" r="24.376"/><circle cx="212.873" cy="25.481" r="6.412"/><circle cx="238.536" cy="25.481" r="6.412"/><circle cx="264.785" cy="25.481" r="6.412"/></g></svg>