<svg xmlns="http://www.w3.org/2000/svg" xmlns:xlink="http://www.w3.org/1999/xlink" version="1.1" id="Capa_1" x="0px" y="0px" viewBox="0 0 468.293 468.293" style="enable-background:new 0 0 468.293 468.293;" xml:space="preserve">
<path style="fill:#64798A;" d="M353.751,468.293H114.542c-6.897,0-12.488-5.591-12.488-12.488V12.488  C102.054,5.591,107.645,0,114.542,0h239.209c6.897,0,12.488,5.591,12.488,12.488v443.317  C366.239,462.702,360.648,468.293,353.751,468.293z"/>
<rect x="102.057" y="51.937" style="fill:#EBF0F3;" width="264.18" height="348.453"/>
<g>
	<path style="fill:#44C4A1;" d="M282.066,303.465H186.02c-6.897,0-12.488-5.591-12.488-12.488V182.443h121.022v108.534   C294.554,297.874,288.963,303.465,282.066,303.465z"/>
	<path style="fill:#44C4A1;" d="M154.399,264.379h-0.523c-5.268,0-9.539-4.271-9.539-9.539v-62.858c0-5.268,4.271-9.539,9.539-9.539   h0.523c5.268,0,9.539,4.271,9.539,9.539v62.858C163.938,260.108,159.667,264.379,154.399,264.379z"/>
	<path style="fill:#44C4A1;" d="M314.417,264.379h-0.523c-5.268,0-9.539-4.271-9.539-9.539v-62.858c0-5.268,4.271-9.539,9.539-9.539   h0.523c5.268,0,9.539,4.271,9.539,9.539v62.858C323.956,260.108,319.685,264.379,314.417,264.379z"/>
	<path style="fill:#44C4A1;" d="M261.402,354.233h-0.653c-6.585,0-11.924-5.339-11.924-11.924v-58.088   c0-6.586,5.339-11.924,11.924-11.924h0.653c6.586,0,11.924,5.339,11.924,11.924v58.088   C273.326,348.895,267.987,354.233,261.402,354.233z"/>
	<path style="fill:#44C4A1;" d="M207.338,354.233h-0.653c-6.586,0-11.924-5.339-11.924-11.924v-58.088   c0-6.586,5.339-11.924,11.924-11.924h0.653c6.585,0,11.924,5.339,11.924,11.924v58.088   C219.262,348.895,213.923,354.233,207.338,354.233z"/>
	<path style="fill:#44C4A1;" d="M188.742,99.527c-1.914-1.914-5.015-1.914-6.929,0c-1.914,1.914-1.914,5.015,0,6.929l18.29,18.29   c0.957,0.957,2.211,1.436,3.465,1.436s2.508-0.479,3.465-1.436c1.914-1.914,1.914-5.015,0-6.929L188.742,99.527z"/>
	<path style="fill:#44C4A1;" d="M286.275,99.527c-1.914-1.914-5.015-1.914-6.929,0l-18.29,18.29c-1.914,1.914-1.914,5.015,0,6.929   c0.957,0.957,2.211,1.436,3.465,1.436c1.254,0,2.508-0.479,3.465-1.436l18.29-18.29   C288.189,104.542,288.189,101.441,286.275,99.527z"/>
	<path style="fill:#44C4A1;" d="M234.043,107.231c-33.419,0-60.511,27.092-60.511,60.511h121.022   C294.554,134.323,267.462,107.231,234.043,107.231z"/>
</g>
<g>
	<circle style="fill:#31978C;" cx="208.846" cy="140.738" r="8.573"/>
	<circle style="fill:#31978C;" cx="259.247" cy="140.738" r="8.573"/>
</g>
<g>
	<circle style="fill:#3A556A;" cx="234.146" cy="434.576" r="24.376"/>
	<circle style="fill:#3A556A;" cx="212.873" cy="25.481" r="6.412"/>
	<circle style="fill:#3A556A;" cx="238.536" cy="25.481" r="6.412"/>
	<circle style="fill:#3A556A;" cx="264.785" cy="25.481" r="6.412"/>
</g>
</svg>