<svg xmlns="http://www.w3.org/2000/svg" viewBox="0 0 64 64" width="250"><circle cx="18" cy="9" r="6" fill="#ffdaaa"/><path d="M25.95 15.049a9.974 9.974 0 01-15.9 0A7.991 7.991 0 006 22v6a2 2 0 002 2h20a2 2 0 002-2v-6a7.991 7.991 0 00-4.05-6.951z" fill="#02998a"/><path d="M37 61h15a6 6 0 006-6V42H31v13a6 6 0 006 6z" fill="#e6e6e6"/><path d="M31 42h27v-2a6 6 0 00-6-6H37a6 6 0 00-6 6z" fill="#b3b3b3"/><path d="M36 39a1 1 0 11.71-1.71.933.933 0 01.21.33.942.942 0 010 .76 1.032 1.032 0 01-.21.33A1.052 1.052 0 0136 39z" fill="#ff6536"/><path d="M40 39a1.487 1.487 0 01-.2-.02.636.636 0 01-.18-.06.782.782 0 01-.181-.09l-.149-.12a1.014 1.014 0 010-1.42 1.7 1.7 0 01.149-.12.782.782 0 01.181-.09.636.636 0 01.18-.06 1.038 1.038 0 01.91.27A1 1 0 0140 39z" fill="#fdb62f"/><path d="M44 39a1 1 0 01-.38-.08 1.032 1.032 0 01-.33-.21 1.014 1.014 0 010-1.42 1.032 1.032 0 01.33-.21 1 1 0 011.09.21A1 1 0 0144 39z" fill="#02998a"/><path d="M51.917 23.5L49.6 26.183A19.021 19.021 0 0031 11v2a17.025 17.025 0 0116.529 13.046L45.154 24l.213 2.871L49 30l3.13-3.633z" fill="#ff6536"/><path d="M10.471 37.954L12.846 40l-.213-2.871L9 34l-3.13 3.633.213 2.867L8.4 37.817A19.021 19.021 0 0027 53v-2a17.025 17.025 0 01-16.529-13.046z" fill="#fdb62f"/></svg>