<svg xmlns="http://www.w3.org/2000/svg" viewBox="0 0 64 64" width="250">
  <g id="Flat">
    <circle cx="18" cy="9" r="6" style="fill:#ffdaaa" />
    <path
      d="M25.95,15.049a9.974,9.974,0,0,1-15.9,0A7.991,7.991,0,0,0,6,22v6a2,2,0,0,0,2,2H28a2,2,0,0,0,2-2V22A7.991,7.991,0,0,0,25.95,15.049Z"
      style="fill:#02998a" />
    <path d="M37,61H52a6,6,0,0,0,6-6V42H31V55A6,6,0,0,0,37,61Z" style="fill:#e6e6e6" />
    <path d="M31,42H58V40a6,6,0,0,0-6-6H37a6,6,0,0,0-6,6Z" style="fill:#b3b3b3" />
    <path
      d="M36,39a1,1,0,1,1,.71-1.71.933.933,0,0,1,.21.33.942.942,0,0,1,0,.76,1.032,1.032,0,0,1-.21.33A1.052,1.052,0,0,1,36,39Z"
      style="fill:#ff6536" />
    <path
      d="M40,39a1.487,1.487,0,0,1-.2-.02.636.636,0,0,1-.18-.06.782.782,0,0,1-.181-.09l-.149-.12a1.014,1.014,0,0,1,0-1.42,1.7,1.7,0,0,1,.149-.12.782.782,0,0,1,.181-.09.636.636,0,0,1,.18-.06,1.038,1.038,0,0,1,.91.27A1,1,0,0,1,40,39Z"
      style="fill:#fdb62f" />
    <path
      d="M44,39a1,1,0,0,1-.38-.08,1.032,1.032,0,0,1-.33-.21,1.014,1.014,0,0,1,0-1.42,1.032,1.032,0,0,1,.33-.21,1,1,0,0,1,1.09.21A1,1,0,0,1,44,39Z"
      style="fill:#02998a" />
    <path
      d="M51.917,23.5,49.6,26.183A19.021,19.021,0,0,0,31,11v2A17.025,17.025,0,0,1,47.529,26.046L45.154,24l.213,2.871L49,30l3.13-3.633Z"
      style="fill:#ff6536" />
    <path
      d="M10.471,37.954,12.846,40l-.213-2.871L9,34,5.87,37.633,6.083,40.5,8.4,37.817A19.021,19.021,0,0,0,27,53V51A17.025,17.025,0,0,1,10.471,37.954Z"
      style="fill:#fdb62f" />
  </g>
</svg>