<svg xmlns="http://www.w3.org/2000/svg" viewBox="0 0 464 464"><path d="M144 0h176c17.673 0 32 14.327 32 32v400c0 17.673-14.327 32-32 32H144c-17.673 0-32-14.327-32-32V32c0-17.673 14.327-32 32-32z" fill="#7d8d9c"/><path d="M112 72h240v328H112V72z" fill="#87cee9"/><g fill="#aabece"><path d="M176 32h80v16h-80V32z"/><circle cx="232" cy="432" r="32"/></g><path d="M144 136a8 8 0 01-8-8v-24a8 8 0 018-8h24a8 8 0 010 16h-16v16a8 8 0 01-8 8zm72-24h-16a8 8 0 010-16h16a8 8 0 010 16z" fill="#e9686a"/><path d="M272 32h16v16h-16V32z" fill="#aabece"/><path d="M292 248l-16.856-22.472a19.919 19.919 0 00-20.8-7.384l-14.4 3.592V208h32a8 8 0 007.152-4.424l16-32A8 8 0 00288 160h-56a8 8 0 00-8 8v53.752l-14.4-3.592a19.927 19.927 0 00-20.8 7.384L172 248a20.048 20.048 0 00-4 12v30.28a19.84 19.84 0 007.48 15.568l27.2 21.736c7.926 6.363 19.373 5.732 26.552-1.464a3.945 3.945 0 015.578-.022l.022.022c7.18 7.193 18.625 7.824 26.552 1.464l27.2-21.728A19.84 19.84 0 00296 290.264V260a20.055 20.055 0 00-4-12z" fill="#e9686a"/></svg>