<svg xmlns="http://www.w3.org/2000/svg" xmlns:xlink="http://www.w3.org/1999/xlink" version="1.1" id="Capa_1" x="0px" y="0px" viewBox="0 0 464 464" style="enable-background:new 0 0 464 464;" xml:space="preserve">
<path style="fill:#7D8D9C;" d="M144,0h176c17.673,0,32,14.327,32,32v400c0,17.673-14.327,32-32,32H144c-17.673,0-32-14.327-32-32V32  C112,14.327,126.327,0,144,0z"/>
<path style="fill:#87CEE9;" d="M112,72h240v328H112V72z"/>
<g>
	<path style="fill:#AABECE;" d="M176,32h80v16h-80V32z"/>
	<circle style="fill:#AABECE;" cx="232" cy="432" r="32"/>
</g>
<g>
	<path style="fill:#E9686A;" d="M144,136c-4.418,0-8-3.582-8-8v-24c0-4.418,3.582-8,8-8h24c4.418,0,8,3.582,8,8c0,4.418-3.582,8-8,8   h-16v16C152,132.418,148.418,136,144,136z"/>
	<path style="fill:#E9686A;" d="M216,112h-16c-4.418,0-8-3.582-8-8c0-4.418,3.582-8,8-8h16c4.418,0,8,3.582,8,8   C224,108.418,220.418,112,216,112z"/>
</g>
<path style="fill:#AABECE;" d="M272,32h16v16h-16V32z"/>

<path style="fill:#E9686A;" d="M292,248l-16.856-22.472c-4.811-6.429-13.012-9.34-20.8-7.384l-14.4,3.592V208h32  c3.029-0.002,5.798-1.714,7.152-4.424l16-32c1.975-3.952,0.372-8.757-3.58-10.732c-1.092-0.546-2.295-0.834-3.516-0.844h-56  c-4.418,0-8,3.582-8,8v53.752l-14.4-3.592c-7.788-1.954-15.987,0.957-20.8,7.384L172,248c-2.593,3.464-3.997,7.673-4,12v30.28  c-0.015,6.059,2.74,11.793,7.48,15.568l27.2,21.736c7.926,6.363,19.373,5.732,26.552-1.464c1.534-1.546,4.031-1.556,5.578-0.022  c0.008,0.007,0.015,0.015,0.022,0.022c7.18,7.193,18.625,7.824,26.552,1.464l27.2-21.728c4.722-3.793,7.454-9.535,7.416-15.592V260  C295.996,255.673,294.593,251.464,292,248L292,248z"/>

</svg>