<svg xmlns="http://www.w3.org/2000/svg" id="Layer_1" enable-background="new 0 0 510.4 510.4" height="512" viewBox="0 0 510.4 510.4" width="512">
  <g>
    <g>
      <g id="XMLID_15_">
        <g>
          <path d="m436.483 306.735-16.757 8.788v158.971c-.126 10.436 8.232 18.998 18.668 19.123.078.001.154.001.232.001 10.33 0 18.768-8.312 18.892-18.67v-159.424z" fill="#55696e" />
        </g>
      </g>
      <g id="XMLID_16_">
        <g>
          <path d="m370.937 315.524v159.142c-.03 10.437 8.319 18.922 18.755 18.953h.058c10.409 0 19.348-8.424 19.38-18.841v-159.254l-19.096-7.308z" fill="#748488" />
        </g>
      </g>
      <g>
        <g fill="#ba6746">
          <path d="m431.557 165.748-.347-3.275h-34.349l-.366 3.004c-1.28 10.513 6.925 19.777 17.516 19.777 10.481 0 18.652-9.083 17.546-19.506z" />
          <path d="m347.691 148.674-20.567-11.919-34.19-57.684c-4.7-7.93-15.099-10.396-22.891-5.27-7.299 4.801-9.243 14.691-4.788 22.207l36.12 60.939c1.418 2.392 3.426 4.379 5.832 5.771l25.679 14.835 14.806-10.799v-18.08z" />
          <path d="m507.823 220.652-10.313-16.149-17.129.1-9.781 18.147 4.29 6.674-17.373 27.026-7.154 20.47 7.154 19.381c1.251.302 2.523.459 3.789.459 5.337 0 10.563-2.63 13.662-7.453l32.854-51.111c3.437-5.343 3.437-12.2.001-17.544z" />
        </g>
      </g>
      <g>
        <g>
          <path d="m457.518 202.398 13.082 20.352 26.91-18.247-18.937-29.652c-4.929-7.718-13.455-12.389-22.613-12.389h-24.751c0 .004.001.007.001.011.416 9.275-8.191 17.175-17.175 17.175-9.628 0-16.758-7.869-17.175-17.175 0-.004 0-.007 0-.011h-25.379l-23.791-13.788-14.814 28.893 38.06 21.968v115.988h86.58v-113.125z" fill="#ffda52" />
        </g>
      </g>
      <g id="XMLID_10_">
        <circle cx="415.412" cy="112.397" fill="#ba6746" r="36.277" />
      </g>
      <g>
        <g>
          <path d="m279.623 60.946h10.518v58.905h-10.518z" fill="#84dbff" />
        </g>
        <g>
          <path d="m296.102 125.11h-22.44c-2.904 0-5.259-2.355-5.259-5.259s2.355-5.259 5.259-5.259h22.44c2.904 0 5.259 2.355 5.259 5.259s-2.354 5.259-5.259 5.259z" fill="#ebf4f7" />
        </g>
        <path d="m297.189 16.767h-24.613c-2.65 0-4.799 2.149-4.799 4.799v22.041l17.105 12.802 17.105-12.802v-22.04c.001-2.651-2.148-4.8-4.798-4.8z" fill="#ebf4f7" />
        <g>
          <path d="m267.777 43.608v17.063c0 9.447 7.658 17.105 17.105 17.105s17.105-7.658 17.105-17.105v-17.063z" fill="#ffda52" />
        </g>
      </g>
    </g>
    <g>
      <g id="XMLID_21_">
        <path d="m175.449 493.632c-9.39 0-17.529-6.991-18.727-16.55l-10.732-85.657-23.719-60.838c-3.69-9.762 1.233-22.583 10.996-26.273 9.762-3.689 20.667 1.233 24.358 10.996l24.514 64.855c.528 1.396.888 2.851 1.074 4.332l11.012 87.887c1.298 10.355-6.045 19.802-16.401 21.1-.799.1-1.592.148-2.375.148z" fill="#414b82" />
      </g>
      <g id="XMLID_20_">
        <path d="m58.495 493.619c-9.693 0-17.944-7.416-18.804-17.253l-7.489-85.663c-.321-3.666.436-7.346 2.177-10.587l39.394-73.345c4.938-9.195 16.396-12.646 25.589-7.707 9.195 4.938 12.645 16.395 7.707 25.589l-36.726 68.377 6.998 80.044c.909 10.397-6.782 19.562-17.179 20.471-.56.05-1.116.074-1.667.074z" fill="#5f6e9b" />
      </g>
      <g fill="#ffb69e">
        <ellipse cx="121.971" cy="133.773" rx="35.808" ry="35.808" transform="matrix(.176 -.985 .985 .176 -31.143 230.357)" />
        <path d="m136.705 185.404-.39-2.753h-31.226l-.376 1.942c-1.941 10.013 5.729 19.312 15.928 19.312 9.866.001 17.449-8.732 16.064-18.501z" />
        <path d="m64.113 170.665 5.77-14.394-13.551-14.75-24.716-74.022c-2.838-8.499-12.028-13.088-20.526-10.25-8.499 2.838-13.088 12.028-10.251 20.526l25.819 77.323c.727 2.176 1.907 4.174 3.462 5.86l14.609 15.842z" />
        <path d="m265.856 156.683c-7.122-5.435-17.304-4.065-22.738 3.059l-31.76 41.632-10.935-3.853-12.757 11.055 3.958 19.301 21.574 7.711c1.449.407 2.922.604 4.379.604 4.978 0 9.781-2.296 12.899-6.384l38.437-50.386c5.436-7.125 4.067-17.305-3.057-22.739z" />
      </g>
      <path d="m166.322 185.506c-5.363-1.89-11.008-2.855-16.694-2.855h-13.313c0 .002 0 .004.001.006.378 8.432-7.446 15.613-15.613 15.613-8.753 0-15.234-7.154-15.613-15.613 0-.002 0-.004 0-.006h-10.97l-24.236-26.38-25.155 20.529 27.426 30.253v87.706c-.212 19.666 15.086 35.603 34.752 35.815h56.491v-112.786l28.254 10.006 8.77-30.274z" fill="#64afff" />
      <g>
        <g>
          <path d="m245.361 148.982h10.518v58.905h-10.518z" fill="#d1e7ed" />
        </g>
        <g>
          <path d="m261.84 213.147h-22.44c-2.904 0-5.259-2.355-5.259-5.259 0-2.905 2.355-5.259 5.259-5.259h22.44c2.904 0 5.259 2.355 5.259 5.259s-2.355 5.259-5.259 5.259z" fill="#ebf4f7" />
        </g>
        <path d="m262.926 104.804h-24.613c-2.65 0-4.799 2.149-4.799 4.799v22.041l17.105 13.964 17.105-13.964v-22.041c.001-2.651-2.147-4.799-4.798-4.799z" fill="#ebf4f7" />
        <g>
          <path d="m233.515 131.644v17.063c0 9.447 7.658 17.105 17.105 17.105s17.105-7.658 17.105-17.105v-17.063z" fill="#ffda52" />
        </g>
      </g>
    </g>
  </g>
</svg>